<?xml version="1.0" standalone="no"?>
<!DOCTYPE svg PUBLIC "-//W3C//DTD SVG 1.1//EN" "http://www.w3.org/Graphics/SVG/1.1/DTD/svg11.dtd" >
<svg xmlns="http://www.w3.org/2000/svg" xmlns:xlink="http://www.w3.org/1999/xlink" version="1.1" viewBox="-10 0 858 1000">
  <g transform="matrix(1 0 0 -1 0 735)">
   <path fill="currentColor"
d="M430.303 109.782c-15.4679 0 -23.2161 13.1783 -34.4521 32.2888c-14.8672 25.2864 -35.8407 60.9588 -88.8838 90.2311v-433.867c-23.6152 -12.749 -44.2871 -22.1318 -67.1445 -29.3613v427.489c-48.5366 -76.1401 -126.96 -151.077 -211.823 -210.643
l-10.5938 13.6602c94.3383 84.1891 189.436 227.843 221.523 350.159h-26.1715c-52.7334 0 -112.765 -5.64355 -153.933 -14.9658l-30.501 48.249c31.4863 -1.44727 79.9385 -2.74414 125.373 -2.74414h86.126v120.598
c-62.1775 -10.3464 -127.132 -19.3166 -193.13 -25.4468l-4.25195 23.4189c134.209 24.9424 276.018 59.9209 370.706 111.979l95.8359 -79.0303c-3.7116 -1.06949 -8.79004 -1.52911 -14.7051 -1.52911c-17.3692 0 -41.9524 3.96305 -60.3261 8.08478
c-39.9782 -8.60427 -82.5423 -17.3439 -126.984 -25.6215v-132.454h36.6807l63.5186 55.499c51.4831 -43.2446 79.7153 -69.6661 79.7153 -80.4341c0 -3.75249 -3.42857 -5.60398 -10.4965 -5.60398h-169.418v-95.5946c104.818 -23.8862 158.214 -49.3644 158.214 -97.0812
c0 -22.8281 -13.624 -47.2812 -34.8779 -47.2812zM755.625 448.116c26.4619 -17.6836 58.2578 -44.4131 82.373 -65.748l-41.8965 -30.5166v-419.946c-20.9375 -11.0459 -44.7734 -21.4014 -67.1523 -27.9014v95.9961l-171.662 -1.37633e-14v-106.666
c-23.6074 -12.749 -46.4727 -21.4023 -67.1445 -27.1719v459.418c0 40.7207 -2.24414 107.943 -4.48047 126.637c28.0293 -14.9307 54.3438 -30.6963 82.8516 -49.6641h157.967zM728.949 30.5391v341.475h-171.662v-341.475h171.662z" />
  </g>

</svg>
